<?xml version="1.0" encoding="UTF-8"?>
<svg xmlns="http://www.w3.org/2000/svg" xmlns:xlink="http://www.w3.org/1999/xlink" viewBox="0 0 70.93 33.56"><defs><linearGradient id="Безымянный_градиент_79" x1="21.37" y1="-1238.06" x2="29.75" y2="-1238.06" gradientTransform="translate(0 1267.24)" gradientUnits="userSpaceOnUse"><stop offset="0" stop-color="#4635c4"/><stop offset="1" stop-color="#9ec5ff"/></linearGradient><linearGradient id="Безымянный_градиент_79-2" x1="41.95" y1="-1237.96" x2="56.44" y2="-1237.96" xlink:href="#Безымянный_градиент_79"/><linearGradient id="Безымянный_градиент_79-3" x1="12.22" y1="-1238.08" x2="19.69" y2="-1238.08" xlink:href="#Безымянный_градиент_79"/><linearGradient id="Безымянный_градиент_79-4" x1="0.02" y1="-1238.01" x2="10.61" y2="-1238.01" xlink:href="#Безымянный_градиент_79"/><linearGradient id="Безымянный_градиент_79-5" x1="32" y1="-1238.13" x2="40.43" y2="-1238.13" xlink:href="#Безымянный_градиент_79"/><linearGradient id="Безымянный_градиент_79-6" x1="58.12" y1="-1238.03" x2="70.93" y2="-1238.03" xlink:href="#Безымянный_градиент_79"/><linearGradient id="Безымянный_градиент_79-7" x1="0" y1="-1255.76" x2="27.46" y2="-1255.76" xlink:href="#Безымянный_градиент_79"/><linearGradient id="Безымянный_градиент_79-8" x1="13.71" y1="-1266.34" x2="13.71" y2="-1244.29" xlink:href="#Безымянный_градиент_79"/><linearGradient id="Безымянный_градиент_79-9" x1="57.16" y1="-1267.26" x2="57.16" y2="-1244.11" xlink:href="#Безымянный_градиент_79"/><linearGradient id="Безымянный_градиент_79-10" x1="35.1" y1="-1244.73" x2="35.1" y2="-1267.15" xlink:href="#Безымянный_градиент_79"/><linearGradient id="Безымянный_градиент_79-11" x1="48.04" y1="-1257.2" x2="71.38" y2="-1247.82" xlink:href="#Безымянный_градиент_79"/><linearGradient id="Безымянный_градиент_79-12" x1="35.08" y1="-1267.24" x2="35.08" y2="-1244.09" xlink:href="#Безымянный_градиент_79"/></defs><title>logo-blue_2</title><g id="Слой_2" data-name="Слой 2"><g id="Слой_1-2" data-name="Слой 1"><g id="Слой_1-2-2" data-name="Слой 1-2"><g id="Слой_1-2-2-2" data-name="Слой 1-2-2"><g id="Слой_2-2" data-name="Слой 2-2"><g id="Слой_1-2-2-2-2" data-name="Слой 1-2-2-2"><path d="M28.61,25a1.15,1.15,0,0,0-1.14,1.15v3.06h0a1.91,1.91,0,0,1-3.81,0h0V26.13A1.17,1.17,0,0,0,22.51,25h0a1.15,1.15,0,0,0-1.14,1.15V29a4.18,4.18,0,0,0,6.27,3.79,1.14,1.14,0,0,0,1.55.41,1.16,1.16,0,0,0,.56-1v-3h0V26.13A1.16,1.16,0,0,0,28.61,25Z" style="fill:url(#Безымянный_градиент_79)"/><path d="M52.52,25a4.2,4.2,0,0,0-3.35,1.34A4,4,0,0,0,46.42,25,4.2,4.2,0,0,0,42,28.93a1.31,1.31,0,0,0,0,.28h0v3a1.15,1.15,0,0,0,2.26.41,1.2,1.2,0,0,0,0-.34V29.19a1.91,1.91,0,1,1,3.81-.33v.33h0v3a1.14,1.14,0,0,0,1.13,1.15h0a1.17,1.17,0,0,0,1.15-1.15v-3a1.91,1.91,0,1,1,3.81-.33v.33h0v3a1.14,1.14,0,0,0,1.13,1.15h0a1.15,1.15,0,0,0,1.14-1.15V29.33A4.3,4.3,0,0,0,52.52,25Z" style="fill:url(#Безымянный_градиент_79-2)"/><path d="M16.79,25H13.36a1.15,1.15,0,0,0-1.14,1.15v6.11a1.15,1.15,0,0,0,2.29.07V31.09H16.8a3.06,3.06,0,0,0,0-6.11Zm0,3.82H14.51V27.28h2.28a.76.76,0,0,1,0,1.52Z" style="fill:url(#Безымянный_градиент_79-3)"/><path d="M9.55,25H1.17a1.15,1.15,0,0,0,0,2.3h3v5a1.14,1.14,0,0,0,1.15,1.15h0A1.15,1.15,0,0,0,6.46,32.3v-5h3a1.15,1.15,0,0,0,0-2.3h.09Z" style="fill:url(#Безымянный_градиент_79-4)"/><path d="M39.89,25.16a1.13,1.13,0,0,0-1.56.35h0l-2.09,3.33-2.08-3.33a1.15,1.15,0,0,0-1.55-.45,1.13,1.13,0,0,0-.46,1.53v0h0a.75.75,0,0,0,.07.12L34.88,31l-.38.61a1.15,1.15,0,0,0,1.92,1.25h0l3.81-6.1a1.15,1.15,0,0,0-.32-1.58Z" style="fill:url(#Безымянный_градиент_79-5)"/><path d="M67.52,25h-6a3.4,3.4,0,0,0,0,6.8h1.87v.51a1.1,1.1,0,0,0,1.1,1.1h.09a1.1,1.1,0,0,0,1.1-1.1V31.8h1.85a3.4,3.4,0,1,0,0-6.8Zm-4.15,4.8H61.51a1.4,1.4,0,1,1,0-2.8h1.86Zm4.15,0H65.66V27h1.86a1.4,1.4,0,0,1,1.4,1.4h0a1.43,1.43,0,0,1-1.4,1.41Z" style="fill:url(#Безымянный_градиент_79-6)"/></g></g><path d="M24.73,22.93h-22A2.73,2.73,0,0,1,0,20.2a2.63,2.63,0,0,1,.39-1.39l11-17.47A2.72,2.72,0,0,1,15.08.4a2.65,2.65,0,0,1,1,.94l11,17.47a2.73,2.73,0,0,1-1,3.74,2.68,2.68,0,0,1-1.38.38Z" style="fill:url(#Безымянный_градиент_79-7)"/><path d="M24.73,22.92h-22A2.72,2.72,0,0,1,0,20.21H0a2.67,2.67,0,0,1,.39-1.4l11-17.46a2.71,2.71,0,0,1,3.7-.95,2.73,2.73,0,0,1,.94,1L27,18.85A2.72,2.72,0,0,1,24.69,23Z" style="fill:url(#Безымянный_градиент_79-8)"/><path d="M68.18,22.92h-22a2.72,2.72,0,0,1-2.73-2.71h0a2.67,2.67,0,0,1,.39-1.4l11-17.46a2.71,2.71,0,0,1,3.7-.95,2.73,2.73,0,0,1,.94,1l11,17.46A2.72,2.72,0,0,1,68.14,23Z" style="fill:url(#Безымянный_градиент_79-9)"/><path d="M24.1,0h22a2.73,2.73,0,0,1,2.72,2.74,2.68,2.68,0,0,1-.38,1.38l-11,17.46a2.72,2.72,0,0,1-4.68,0l-11-17.46A2.72,2.72,0,0,1,24.1,0Z" style="fill:url(#Безымянный_градиент_79-10)"/><path d="M70.49,18.8,59.41,1.25A2.66,2.66,0,0,0,57.46,0h-.54A2.75,2.75,0,0,0,54.8,1.25l-8,12.61L43.72,18.8a1.72,1.72,0,0,0-.21.43,2.69,2.69,0,0,0,4.76,2.46l1.54-2.44h8.26a2.69,2.69,0,0,0,0-5.38H53.2l3.91-6.2,8.83,14a2.69,2.69,0,1,0,4.55-2.88Z" style="fill:url(#Безымянный_градиент_79-11)"/><path d="M46.14,0H24.06a2.69,2.69,0,1,0,0,5.38h8.35V20.23a2.69,2.69,0,1,0,5.38,0h0V5.39h8.35a2.69,2.69,0,0,0,2.65-2.73A2.74,2.74,0,0,0,48,.8,2.66,2.66,0,0,0,46.14,0Z" style="fill:url(#Безымянный_градиент_79-12)"/></g></g></g></g></svg>