<?xml version="1.0" encoding="UTF-8"?> <svg xmlns="http://www.w3.org/2000/svg" viewBox="0 0 2167.4245 2167.4245"><defs><style>.cls-1{fill:none;}.cls-2{fill:#00ad5d;}.cls-2,.cls-3,.cls-4,.cls-5{fill-rule:evenodd;}.cls-3{fill:#9dcd4b;}.cls-4{fill:#ffd82f;}.cls-5{fill:#fff;}</style></defs><title>bp</title><g id="Слой_2" data-name="Слой 2"><g id="Слой_1-2" data-name="Слой 1"><circle class="cls-1" cx="1083.71225" cy="1083.71225" r="1083.71225"></circle><path class="cls-2" d="M1082.498,1101.90168h-.00173v.00206h-.00239v.00412h0l-.00173-.00206h.00173l-.00173.00206.00173.002h.00239v.00195h.00173v.00206h.00217v.00206l.00217-.00206h0l.00173.00206v-.00206h.00217v-.00206h.00174v-.00195h.00433l-.002-.002h0l.002-.00206h-.002v-.00206h-.00238v-.00206h-.00174l-.00217-.006-.0039.004-.00217.00195ZM885.4731,760.66073c2.75036-53.12347,13.00582-101.24494,23.51709-135.45855,30.04732,19.45345,68.84583,49.72634,105.10513,88.65589,20.73638-48.98352,46.82065-90.69573,68.401-119.253,21.5799,28.55117,47.6724,70.25742,68.42483,119.23075,36.25149-38.91937,75.04393-69.18412,105.08323-88.63573,10.51278,34.2096,20.76825,82.32912,23.519,135.44652,47.3806-24.17558,94.17914-39.35229,129.06121-47.35644-1.8223,35.73988-8.64063,84.46554-24.22208,135.32164,52.78962-6.51407,101.95588-4.76819,137.47248-.35834-13.93822,32.963-37.00656,76.419-69.0431,118.87826,51.83272,11.93284,97.43526,30.38766,129.30292,46.67995-24.371,26.20729-60.91235,59.14826-105.53848,88.092,44.62613,28.94182,81.16747,61.88474,105.54022,88.09008-31.86528,16.29217-77.47194,34.745-129.30683,46.67984,32.03676,42.46142,55.111,85.91735,69.04917,118.88043-35.51638,4.40985-84.68676,6.15562-137.47638-.35846,15.58145,50.85611,22.40368,99.58187,24.22815,135.32371-34.88185-8.0022-81.68061-23.17891-129.06316-47.35655-2.75274,53.11762-13.00431,101.2392-23.51514,135.45052-30.04125-19.44954-68.832-49.71841-105.0854-88.63767-20.75221,48.97138-46.84471,90.67958-68.42071,119.23281-21.57816-28.55107-47.67066-70.25732-68.42526-119.23086-36.25106,38.92142-75.04177,69.18618-105.08063,88.63789-10.51322-34.20959-20.77085-82.32922-23.52121-135.44662-47.37887,24.17786-94.17741,39.3524-129.06142,47.35655,1.8224-35.74184,8.64431-84.4676,24.226-135.32566-52.7893,6.51408-101.95795,4.77221-137.47422.36236,13.93822-32.965,37.01047-76.42312,69.0431-118.88238-51.83468-11.93479-97.43526-30.38355-129.30292-46.67583,24.371-26.20729,60.91213-59.15216,105.53609-88.09409-44.624-28.94182-81.16508-61.88268-105.538-88.088C614.7754,997.52745,660.384,979.08064,712.21868,967.154c-32.0387-42.46533-55.1129-85.92548-69.05534-118.89246,35.51843-4.41191,84.68112-6.16375,137.47237.35032-15.57961-50.85209-22.40184-99.57569-24.2262-135.31557,34.8864,8.00209,81.68689,23.17891,129.06359,47.36446Zm197.0271,341.239-.00217.00195.00217-.00195Z"></path><path class="cls-3" d="M1082.5041,1101.89572l-.0039-.00206v.00206h-.00629l.00239.00206-.00607.002.00368.00195-.00368.00412h.00195l-.00195.004h.00195l-.00195.004.00368-.00206v.00607l.00239-.002.00173.004.00217-.00206.0039.00412v-.00412l.00391.00206v-.00206h.00607l-.00174-.002.00585-.00206-.00411-.00206.00411-.00195h-.002l.002-.004h-.002l.002-.00607-.00411.00195v-.006l-.00174.00206-.002-.00412-.00238.00206-.00391-.004v.004Zm-290.01847,51.142c-37.707-12.64759-72.85083-30.90915-104.03378-51.132,31.183-20.22488,66.32678-38.48439,104.03378-51.132-31.10632-24.78171-57.88343-53.97121-80.271-83.64207,36.2231-8.34039,75.49691-13.47918,115.2599-12.46831-20.75872-33.92961-35.94323-70.50911-46.83279-106.04955,36.88949,4.55076,75.55511,13.15692,112.57359,27.70745-7.90139-38.97974-9.6593-78.55553-7.73858-115.67471,33.10832,16.89635,66.50432,38.19649,96.31578,64.5306,5.90826-39.33213,17.78463-77.11575,32.28475-111.33727,25.33332,27.198,49.42013,58.6387,68.42678,93.57919,19.00449-34.93843,43.09368-66.38119,68.42526-93.57919,14.504,34.22152,26.38235,72.00514,32.29018,111.33727,29.80777-26.332,63.204-47.63425,96.30971-64.5306,1.92506,37.11918.16541,76.69291-7.734,115.67471,37.0161-14.55053,75.678-23.15463,112.56731-27.7055-10.8874,35.53849-26.07213,72.12-46.82672,106.0476,39.75908-1.01087,79.03083,4.13,115.252,12.47036-22.38331,29.66881-49.16063,58.86026-80.26911,83.642,37.707,12.64758,72.85093,30.9072,104.03377,51.13208-31.18284,20.22282-66.32678,38.48438-104.03594,51.132,31.1087,24.78366,57.888,53.96914,80.27128,83.6399-36.2192,8.34049-75.4929,13.47917-115.25393,12.46841,20.75654,33.92756,35.94127,70.51106,46.82867,106.04955-36.88755-4.55076-75.553-13.157-112.5697-27.70549,7.90183,38.9818,9.65952,78.55358,7.73469,115.67276-33.10616-16.89452-66.50216-38.1966-96.30971-64.53071-5.90827,39.332-17.78442,77.116-32.29083,111.33749-25.33115-27.19811-49.41839-58.63892-68.42288-93.57724-19.00448,34.93832-43.09346,66.37913-68.42894,93.57724-14.50012-34.22152-26.37866-72.00547-32.2865-111.33749-29.80972,26.33411-63.20355,47.63619-96.31361,64.53071-1.92093-37.11918-.163-76.693,7.74032-115.67482-37.01848,14.55052-75.68236,23.15474-112.57359,27.70549,10.88956-35.53643,26.07039-72.11993,46.82867-106.04749-39.761,1.01076-79.03268-4.13-115.25578-12.47036,22.38753-29.66881,49.16464-58.8583,80.271-83.64Z"></path><path class="cls-4" d="M1082.49391,1101.90786l-.00368.002h.00607l-.00239-.002Zm.00239.006v.00813l.00607-.00813.00173.01008.00217-.008.00607.00607v-.00813l.008.004-.00628-.00607a.0136.0136,0,0,1,.01235,0l-.00607-.0039-.02406.006Zm.02189-.008.00412-.00412-.00823.00206.00628-.008-.008.006.0039-.014-.00585.004v-.00813l-.00412.00813-.00217-.00813-.00173.01615-.01019-.008.00412.008-.00607-.004.00368.006h-.00607l.00607.00618-.00607-.00206.00607.00206.02428-.00206Zm-.02189.008h0Zm-34.99891-198.53734c6.44741-34.20948,18.90195-66.33284,35.00671-95.94724,16.103,29.6144,28.55324,61.73776,35.003,95.94724,17.758-29.93859,40.44565-55.86406,65.70244-78.18309,5.00406,33.33151,5.72682,67.77664.08671,102.127,26.93211-22.06127,57.11839-38.66963,88.4907-51.001-6.69953,33.03754-17.80263,65.65019-34.85366,96.00556,32.85208-11.52193,66.90039-16.79155,100.59664-17.65338-17.593,28.75051-39.18916,55.59612-65.59188,78.28564,34.80727.41081,68.60411,7.104,100.56044,17.81661-26.36435,21.00011-55.83589,38.84078-88.40442,51.134,32.57265,12.29108,62.05,30.12579,88.41634,51.1259-31.95806,10.71645-65.759,17.40775-100.56824,17.82051,26.40055,22.68756,47.99064,49.53719,65.5858,78.2878-33.69624-.85988-67.7426-6.13557-100.59295-17.65554,17.0493,30.34941,28.14871,62.958,34.85,95.99158-31.37036-12.3314-61.55664-28.92773-88.48463-50.98694,5.64011,34.34845,4.92493,68.79141-.08086,102.12292-25.259-22.319-47.94013-48.24244-65.70048-78.18093-6.44959,34.2135-18.90585,66.3348-35.01105,95.95136-16.10282-29.6145-28.55324-61.73591-35.0026-95.94941-17.76014,29.94066-40.44955,55.86407-65.70872,78.18516-5.00168-33.33563-5.72466-67.77675-.08455-102.12715-26.93211,22.06333-57.11449,38.66562-88.48463,50.99908,6.69715-33.03755,17.80025-65.64813,34.85172-96.00361-32.85231,11.52193-66.90256,16.79165-100.59881,17.65348,17.59321-28.75061,39.1872-55.59417,65.59014-78.28368-34.80987-.41287-68.60433-7.10211-100.56282-17.81856,26.36478-20.99816,55.83415-38.84089,88.4003-51.13-32.57222-12.29314-62.04787-30.12991-88.41634-51.12991,31.96239-10.71863,65.7653-17.41187,100.58059-17.82463-26.4025-22.68757-47.99085-49.53719-65.58363-78.28781,33.69408.86183,67.73826,6.13752,100.5884,17.6575-17.0493-30.35136-28.15023-62.95794-34.84955-95.99147C924.5957,888.667,954.78,905.26328,981.708,927.32249c-5.6401-34.35246-4.92515-68.79759.08064-102.1291,25.257,22.319,47.94664,48.2445,65.70873,78.18309Z"></path><path class="cls-5" d="M1047.08246,1004.5772a276.29847,276.29847,0,0,1,.41666-101.18868A276.23611,276.23611,0,0,1,1082.498,998.335a276.28458,276.28458,0,0,1,35.003-94.9445,276.17506,276.17506,0,0,1,.41862,101.18272,276.3673,276.3673,0,0,1,65.36446-77.24062,276.24424,276.24424,0,0,1-34.21566,95.23033A276.28647,276.28647,0,0,1,1236.911,972.331a276.128,276.128,0,0,1-64.7178,77.7803,276.34964,276.34964,0,0,1,99.72039-17.15606,276.22917,276.22917,0,0,1-87.42519,50.95669,276.38163,276.38163,0,0,1,99.5836,17.98582,276.26234,276.26234,0,0,1-99.58555,17.98169,276.38489,276.38489,0,0,1,87.42953,50.95876,276.265,276.265,0,0,1-99.72885-17.15813,276.36307,276.36307,0,0,1,64.728,77.78443,276.16384,276.16384,0,0,1-87.84663-50.232,276.41374,276.41374,0,0,1,34.21957,95.2324,276.25,276.25,0,0,1-65.37206-77.24669,276.30836,276.30836,0,0,1-.41081,101.19074,276.17975,276.17975,0,0,1-35.01127-94.95459,276.29853,276.29853,0,0,1-34.99479,94.95459,276.227,276.227,0,0,1-.42273-101.1928,276.34053,276.34053,0,0,1-65.3623,77.25081,276.32125,276.32125,0,0,1,34.21567-95.23641,276.3042,276.3042,0,0,1-87.84251,50.23784,276.26384,276.26384,0,0,1,64.726-77.79234,276.32278,276.32278,0,0,1-99.72885,17.16615,276.28293,276.28293,0,0,1,87.42759-50.96483,276.346,276.346,0,0,1-99.58577-17.97768,276.27909,276.27909,0,0,1,99.58577-17.99167,276.25453,276.25453,0,0,1-87.42759-50.95279,276.32793,276.32793,0,0,1,99.72669,17.154,276.30193,276.30193,0,0,1-64.72387-77.78019,276.27161,276.27161,0,0,1,87.84251,50.22374,276.29073,276.29073,0,0,1-34.21567-95.22231,276.328,276.328,0,0,1,65.36837,77.24669Z"></path><path class="cls-2" d="M1217.13583,280.21605v247.6881h36.85936V504.13429c15.15828,20.32557,32.03762,29.68463,56.4973,29.68463,45.47289,0,77.85434-36.919,77.85434-95.82693,0-60.62922-33.071-97.49054-77.51052-97.49054-24.45751,0-43.40585,10.33459-56.49535,29.97079V280.21605Zm84.74508,94.04625c29.281,0,47.53972,22.73645,47.53972,64.07546,0,39.27-18.25874,61.66265-47.53972,61.66265-30.66039,0-48.22954-21.703-48.22954-62.69606,0-41.685,16.53552-63.04205,48.22954-63.04205Z"></path><path class="cls-2" d="M1498.05062,374.2623c28.93737,0,47.53994,22.73645,47.53994,62.00842,0,41.33706-18.25874,63.72969-47.53994,63.72969-31.35,0-48.22932-21.01344-48.22932-61.66265,0-42.37264,17.22511-64.07546,48.22932-64.07546Zm-47.53973,131.24922c12.74546,18.60257,32.03784,28.3074,56.49535,28.3074,44.43926,0,77.51052-36.919,77.51052-97.5482,0-58.90795-32.38145-95.76927-77.85434-95.76927-24.8035,0-41.68284,9.645-56.4973,31.348V346.35856h-36.85936V600.305h37.20513V505.51152Z"></path></g></g></svg> 