<?xml version="1.0" encoding="UTF-8"?> <svg xmlns="http://www.w3.org/2000/svg" viewBox="0 0 2167.4245 2167.4245"><defs><style>.cls-1{fill:none;}.cls-2{fill:#fff;}.cls-3{fill:#ffd031;}</style></defs><title>rosneft</title><g id="Слой_2" data-name="Слой 2"><g id="Слой_1-2" data-name="Слой 1"><circle class="cls-1" cx="1083.71225" cy="1083.71225" r="1083.71225"></circle><path d="M450.25034,1472.94844c10.83728,0,17.56625-1.51348,20.69059-4.82482,3.07526-3.226,4.67817-5.83379,4.67817-7.758,0-2.09121-1.60291-4.73939-4.67817-7.96536-3.12434-3.33181-9.85331-4.99187-20.69059-4.99187h-47.447v25.54h47.447m-47.447,73.08818H362.58148l-.26036-36.73135v-54.09808l.26036-36.77591h106.439c18.099,0,30.511,3.181,37.07918,9.515,6.5028,6.4524,9.79,15.49589,9.79,27.2609v10.28408c0,11.78542-3.28725,20.821-9.79,27.17922-6.56815,6.32616-18.98013,9.36093-37.07918,9.36093H402.80336v44.0052Z"></path><path d="M652.79315,1467.8145c0-7.09891-1.66012-12.18823-4.70278-15.4142-3.09185-3.33181-10.01577-4.98768-20.52392-4.98768H604.83588c-9.74137,0-16.37658,1.97286-19.71259,5.51215-3.35215,3.43383-4.8327,8.364-4.8327,14.88973v29.1238c0,6.22413,1.48055,11.23221,4.8327,14.66566,3.336,3.64881,9.97122,5.40218,19.71259,5.40218h22.73057c10.50815,0,17.35458-1.71669,20.42807-4.88146,2.70322-3.031,4.41991-8.32781,4.79863-15.08888v-29.2213m30.43977,68.967c-6.47242,6.11868-18.96391,9.25509-36.85555,9.25509h-59.2748c-17.8713,0-30.42776-2.87605-37.00805-9.25509-7.12516-5.87835-10.44274-15.29216-10.44274-27.47626v-54.09808c0-12.26946,3.31758-21.533,10.44274-27.66326,6.58029-5.93168,19.13675-9.11265,37.00805-9.11265h59.2748c17.89164,0,30.38313,3.181,36.85555,9.515,6.639,6.4524,10.07076,15.49589,10.07076,27.2609v54.09808c0,11.96454-3.4318,20.92266-10.07076,27.47626"></path><path d="M860.28486,1536.78153c-6.58442,6.11868-18.89889,9.25509-36.73555,9.25509H764.40273c-17.85954,0-30.29561-2.87605-37.29085-9.25509-6.94432-5.87835-10.40816-15.29216-10.40816-27.47626v-54.09808c0-12.26946,3.46384-21.533,10.40816-27.66326,6.99524-5.93168,19.43131-9.11265,37.29085-9.11265h59.14658c17.83666,0,30.15113,3.181,36.73555,9.515,6.82813,6.4524,10.08494,15.49589,10.08494,27.2609v12.60731H829.92632c0-7.09891-1.593-12.18823-4.55238-15.4142-3.20557-3.33181-9.93657-4.98768-20.52392-4.98768H782.13146c-9.79209,0-16.42692,1.97286-19.93786,5.51215-3.22222,3.43383-5.01386,8.364-5.01386,14.88973v29.1238c0,6.22413,1.79164,11.23221,5.01386,14.66566,3.51094,3.64881,10.14577,5.40218,19.93786,5.40218H804.85c10.58735,0,17.31835-1.71669,20.52392-4.88146,2.95939-3.031,4.55238-8.32781,4.55238-15.18638H870.3698v12.367c0,11.96454-3.25681,20.92266-10.08494,27.47626"></path><polygon points="934.248 1546.037 894.197 1546.037 893.916 1509.305 893.916 1455.207 894.197 1418.431 934.248 1418.431 934.248 1467.334 1006.862 1467.334 1006.862 1418.431 1047.613 1418.431 1047.613 1546.037 1006.862 1546.037 1006.862 1496.32 934.248 1496.32 934.248 1546.037 934.248 1546.037"></polygon><path d="M1123.02988,1496.31968h-11.51464c.2296,6.58239,1.83245,11.85083,5.22147,15.28428,3.22172,3.64506,9.94433,5.40218,19.79534,5.40218h88.22207v29.03048H1118.77663c-17.90989,0-30.25874-2.87605-37.3841-9.25509-6.78986-5.87415-10.30881-15.288-10.30881-27.47626v-54.09808c0-12.26946,3.51895-21.533,10.30881-27.66326,7.12536-5.93168,19.47421-9.11265,37.3841-9.11265h105.97749v28.98134h-88.22207c-9.851,0-16.57362,1.97286-19.79534,5.51215-3.389,3.43383-4.99187,8.12034-5.22147,14.40944h113.23888v28.98547H1123.02988"></path><polygon points="1535.43 1447.408 1479.999 1447.408 1479.999 1418.431 1633.448 1418.431 1633.448 1447.408 1575.678 1447.408 1575.678 1546.037 1535.43 1546.037 1535.43 1447.408 1535.43 1447.408"></polygon><path d="M1691.97635,1491.40155v25.4992h47.4225c10.687,0,17.53752-1.65173,20.61724-4.77232,3.04691-3.34388,4.56026-5.92709,4.56026-7.81459,0-2.075-1.51335-4.89022-4.56026-7.99416-3.07972-3.45385-9.93022-4.91813-20.61724-4.91813h-47.4225m0-29.02629h66.29056c17.88751,0,30.3115,3.23806,36.86554,9.69046,6.66769,6.13451,9.9709,15.28383,9.9709,27.14667v10.08875c0,11.76539-3.30321,20.9226-9.9709,27.15919-6.554,6.35451-18.978,9.57629-36.86554,9.57629H1651.6853l-.26824-36.73548v-54.29723l.26824-36.66639h40.291v44.03774Z"></path><path d="M1287.14486,1478.98131c0-15.97161,14.07006-14.20571,14.07006-14.20571h40.75049v26.95134h-41.04174c0-.00007-13.77881.51652-13.77881-12.74563m135.81339,12.74563h-41.06017V1464.7756h40.82816c0-.00007,14.0899-1.7659,14.0899,14.20571,0,13.26215-13.85789,12.74563-13.85789,12.74563m21.43494-54.009h-62.49511v-20.11279h-39.73931V1437.718H1278.179c0-.00006-36.55229,1.25305-36.55229,40.06729,0,39.11548,37.51822,39.43248,37.51822,39.43248h63.0138V1547.021h39.73931v-29.80324h61.4904c0-.00006,37.384-.317,37.384-39.43248,0-38.81424-36.37926-40.06729-36.37926-40.06729"></path><path class="cls-2" d="M1006.32087,620.40345v59.08778h-65.8123v59.03871H874.17313v60.81281H807.79141v201.52768s116.89595,101.02007,133.50041,115.69616v214.42784h287.29436V1117.54269c16.4718-14.40911,132.86539-116.776,132.86539-116.776V799.34275h-65.99549v-60.2392h-66.8699V679.49123h-66.76666V620.40345H1006.32087"></path><polygon class="cls-3" points="989.07 1283.959 1045.422 1283.959 1045.422 1018.551 989.07 1018.551 989.07 1283.959 989.07 1283.959"></polygon><polygon class="cls-3" points="1055.891 1283.959 1112.253 1283.959 1112.253 963.726 1055.891 963.726 1055.891 1283.959 1055.891 1283.959"></polygon><polygon class="cls-3" points="1122.629 1283.959 1178.871 1283.959 1178.871 1018.551 1122.629 1018.551 1122.629 1283.959 1122.629 1283.959"></polygon><polygon points="912.015 1029.065 855.751 981.52 855.751 845.691 912.015 845.691 912.015 1029.065 912.015 1029.065"></polygon><polygon points="978.904 1088.264 922.426 1035.875 922.426 785.515 978.904 785.515 978.904 1088.264 978.904 1088.264"></polygon><polygon points="989.07 1010.231 1045.422 1010.231 1045.422 726.305 989.07 726.305 989.07 1010.231 989.07 1010.231"></polygon><polygon points="1055.891 952.077 1112.253 952.077 1112.253 667.012 1055.891 667.012 1055.891 952.077 1055.891 952.077"></polygon><polygon points="1256.115 1029.065 1312.39 981.52 1312.39 845.691 1256.115 845.691 1256.115 1029.065 1256.115 1029.065"></polygon><polygon points="1189.373 1088.264 1245.491 1035.875 1245.491 785.515 1189.373 785.515 1189.373 1088.264 1189.373 1088.264"></polygon><polygon points="1122.629 1010.231 1178.871 1010.231 1178.871 726.305 1122.629 726.305 1122.629 1010.231 1122.629 1010.231"></polygon></g></g></svg> 