<?xml version="1.0" encoding="UTF-8"?> <svg xmlns="http://www.w3.org/2000/svg" viewBox="0 0 2167.4245 2167.4245"><defs><style>.cls-1{fill:none;}.cls-2{fill:#0069b4;}</style></defs><title>samolet</title><g id="Слой_2" data-name="Слой 2"><g id="Слой_1-2" data-name="Слой 1"><circle class="cls-1" cx="1083.71225" cy="1083.71225" r="1083.71225"></circle><path d="M986.46119,1256.08177c-.97839-8.6166-2.197-17.21888-2.7128-25.86307-.09241-1.54835,2.57931-3.42912,4.22226-4.87525,2.61384-2.30074,7.23993-3.93693,7.872-6.60011,3.64544-15.36059,7.025-30.84922,9.1888-46.47531,1.651-11.92258.78924-12.04974,13.07414-12.08,9.239-.02276,18.49428.30677,27.71182-.14391,6.47808-.3168,9.06728,1.38579,8.84713,8.4881-.5167,16.66508-.04651,33.35872-.18312,50.03907-.035,4.27213.795,6.73166,5.81592,6.83177,1.65115.03293,4.7201,2.73836,4.63664,4.064-.56028,8.89535-1.7959,17.74817-2.81246,26.61478h-7.72044c-.38885-3.55527-.98367-7.1022-1.12777-10.66734-.424-10.488-.35393-10.49815-10.54718-10.51408q-13.85919-.02163-27.71838-.0144c-6.2966-.00188-12.59316-.00035-19.03782-.00035-.67121,7.95569-1.2297,14.57593-1.78828,21.19617Zm55.45372-85.24917c-7.549,0-14.68387-.28565-21.76251.21827-1.59653.11366-4.05733,2.82071-4.32248,4.60161-2.39,16.05122-4.37922,32.16213-6.53533,48.63233h33.09964c0-15.72883.01743-30.82938-.01913-45.92978C1042.36968,1176.11731,1042.10909,1173.88021,1041.91491,1170.8326Z"></path><path class="cls-2" d="M1024.65866,1008.38c8.3203-14.47177,16.41394-28.67161,24.62982-42.80039,6.45169-11.09486,12.95563-22.1619,19.617-33.13159,7.07487-11.65063,17.0623-18.19614,31.21449-17.299a105.30956,105.30956,0,0,0,13.88265.03366c6.84812-.47318,8.90763,2.689,8.87672,9.18311-.22543,47.32791-.22732,94.65693-.27095,141.98563-.005,5.39872-.06635,10.81453.32316,16.19165.38932,5.37275-.99672,8.25091-7.12784,7.93426-7.439-.3842-14.92207-.29825-22.37-.00576-5.51589.21663-7.06875-2.20747-7.03868-7.39916.20413-35.23739.21506-70.476.22222-105.71426a16.28408,16.28408,0,0,0-2.50659-9.10151c-4.80775,8.04292-9.651,16.06484-14.4157,24.13317-9.53,16.13765-18.72758,32.48431-28.76424,48.29927-2.02153,3.18543-7.15847,6.21733-10.85894,6.21729-23.69729-.00032-20.13134,4.19775-31.66577-17.14317-10.11777-18.71968-20.97911-37.03769-31.54189-55.516-.612-1.07067-1.49244-1.98785-3.4774-4.58529-.67955,4.03572-1.4662,6.54224-1.46874,9.04957-.03487,34.46258-.10914,68.92667.21516,103.38671.0614,6.51954-2.10767,8.75488-8.43872,8.3504a121.11737,121.11737,0,0,0-18.50432.06709c-6.95122.6252-8.86436-2.15271-8.82191-8.80765.23783-37.29622.11286-74.59474.11173-111.89247-.00047-14.91905.15644-29.8405-.07-44.75612-.10814-7.12339,2.45623-10.78445,9.97918-9.8304a10.13243,10.13243,0,0,0,3.08-.01234c23.79709-4.43662,36.24846,8.939,46.28876,28.01251,11.33553,21.53414,24.06365,42.33539,36.21674,63.43775C1022.19574,1007.05068,1022.799,1007.21429,1024.65866,1008.38Z"></path><path class="cls-2" d="M876.964,1018.68967c0,15.94857-.20253,31.90086.09066,47.844.1343,7.30494-2.09951,12.10658-9.39609,14.757-36.644,13.31059-73.72519,19.33639-111.05416,3.91292-18.32412-7.5711-27.5394-22.98087-29.17043-42.86344-3.32006-40.47149,22.16794-58.56784,55.14643-62.09181,15.72738-1.68057,31.76986-.751,47.65741-.41967,5.9152.12336,8.54073-.42279,8.75222-7.56758.63449-21.43633-11.44217-29.649-33.39208-29.585-16.002.04669-32.07309,3.37484-47.94532,6.18822-5.5199.97841-8.25066.82247-9.19149-5.09823-.60217-3.7896-1.78653-7.488-2.73486-11.221-2.57436-10.134-2.32692-11.15671,7.28593-13.8277,27.86431-7.74229,56.2014-9.63212,84.68413-4.50692,21.23333,3.82075,37.56057,22.48408,38.495,44.36423.85427,20.00393.18114,40.07309.18114,60.1135Zm-38.17357-9.96016c-17.70725,0-34.41128-1.09131-50.89265.35453a23.13755,23.13755,0,0,0-21.30439,21.793c-.98579,17.18749,3.61514,25.72881,17.64806,30.1079,16.98186,5.29935,34.02888,2.74569,50.81424-1.59069,1.56977-.40555,3.5389-3.248,3.57221-4.99241C838.91175,1039.54044,838.79041,1024.67128,838.79041,1008.72951Z"></path><path class="cls-2" d="M1334.19761,1001.8501a99.71972,99.71972,0,0,1-9.36527,47.18348c-12.87689,27.1482-35.43674,41.36775-64.862,44.20736-22.59237,2.18022-44.6287.03264-64.23543-13.405-15.62805-10.71094-24.8218-25.72035-29.74311-43.54716a119.30821,119.30821,0,0,1,.22883-66.161c9.07566-31.09959,34.72058-54.63062,68.70832-57.87551,16.67048-1.59156,33.50616-1.57166,49.46133,4.63464,30.93406,12.03276,44.84979,36.621,48.9705,68.02767C1334.09376,990.50017,1333.94127,996.202,1334.19761,1001.8501Zm-134.08438,5.03263c1.05157,5.88178,1.84218,15.16877,4.45979,23.90857,5.09321,17.00638,15.932,28.69026,34.40864,30.88311,18.91244,2.2446,35.4489-2.2775,45.76433-19.82372,14.55631-24.76022,14.10008-50.45409,2.5771-76.00045-11.5489-25.60387-46.0187-28.801-64.50591-14.701C1205.28635,964.52,1201.32133,983.25136,1200.11323,1006.88273Z"></path><path class="cls-2" d="M1650.92476,1013.64281c-16.97705,0-33.9557.13235-50.9303-.07165-5.95582-.07158-7.24517,2.07781-6.57245,7.91312,3.8098,33.04155,28.547,42.5686,55.06712,39.701,10.79043-1.16672,21.32932-5.068,31.844-8.19156,4.76891-1.41665,7.7865-.93772,9.72339,4.0287,1.5799,4.05134,3.734,7.87767,5.61231,11.81395,3.9637,8.30685,3.72149,10.31557-4.3796,13.8996-31.96414,14.1414-64.48253,15.79621-97.14842,2.58032-15.036-6.08328-25.54832-17.45687-31.35834-32.34937-11.81288-30.27933-13.0274-61.24065-1.33789-91.72944,12.84513-33.50305,37.77191-49.45144,73.68044-49.71756,26.44674-.196,49.0179,7.29717,64.98881,29.79879,9.3321,13.148,11.92615,28.185,12.86143,43.701.35464,5.884.10216,11.81866-.12864,17.72026-.29009,7.42131-3.99744,11.02775-11.76246,10.91441-16.71656-.244-33.43924-.07493-50.15939-.07493Zm24.497-27.48941c.61324-15.745-2.81685-29.674-16.97215-38.002-13.74355-8.08561-28.813-8.47369-42.514-.27982-13.73083,8.21181-20.85244,21.23623-21.55427,38.28183Z"></path><path class="cls-2" d="M1476.45707,946.72867c-17.01154,0-33.42351-.12068-49.82558.22494-1.33835.02821-3.59878,3.15224-3.75985,4.98467-1.68592,19.173-3.00364,38.37812-4.47723,57.57021-1.48622,19.35834-5.28226,38.12175-15.35757,55.04924-9.49061,15.94511-23.83742,25.92288-41.16977,31.56937-2.10615.68611-6.41836-1.51627-7.92193-3.64283a73.11734,73.11734,0,0,1-8.59945-16.27125c-.80163-2.12394.37764-6.89974,2.05565-7.77336,31.46352-16.38062,35.7861-46.03457,37.82308-76.69819,1.36229-20.50542,2.07656-41.05353,3.12493-61.58028.57611-11.2794,4.41635-14.91552,15.70382-14.92581q50.15435-.04575,100.30878-.04721c9.34671-.00081,11.19718,1.81421,11.20011,11.28861.01611,51.69786-.10537,103.39612.10008,155.09313.02667,6.71613-2.116,9.34168-8.87059,8.94954-7.17769-.41673-14.40118-.27973-21.59659-.08485-5.79051.15684-8.19693-1.86582-8.15433-8.11649.28367-41.66323.24833-83.32875.25031-124.99353C1477.291,954.051,1476.78909,950.77735,1476.45707,946.72867Z"></path><path class="cls-2" d="M655.58117,911.73352c15.49674-.27573,31.07936,2.04327,45.79814,9.12734,5.47994,2.63748,8.37077,5.41978,4.411,11.66856-2.16129,3.41069-3.32322,7.47158-4.81476,11.28658-4.65489,11.906-3.99061,9.34973-15.79477,6.52-10.13767-2.43022-20.566-4.50149-30.93757-4.91055-17.28426-.68168-31.61608,9.87433-37.89591,26.15034-8.08189,20.94652-8.55014,42.02746-1.08239,63.24753,5.41289,15.381,17.84546,24.68573,34.05157,25.67743,15.37484.94078,30.38031-.6544,44.3656-7.37225,6.40489-3.07657,8.77262-.40426,10.70626,5.06647,1.44881,4.099,3.33844,8.05071,5.17,12.004,3.97874,8.58779,3.01109,10.46553-5.89691,14.36014-21.37833,9.34665-43.878,10.243-66.56151,8.70385a65.37136,65.37136,0,0,1-33.84593-11.65036,67.38331,67.38331,0,0,1-26.24094-36.88791c-7.85252-26.36034-8.15116-52.76348.05829-78.9262C587.40324,932.87157,615.73279,909.76166,655.58117,911.73352Z"></path><path class="cls-2" d="M1798.382,915.21485c21.35307,0,42.70971.21773,64.05731-.12223,7.135-.11363,10.10961,1.80083,10.03657,9.52892-.2111,22.32078.08011,22.32817-22.4854,22.3912-7.718.02156-15.46548.43342-23.1452-.10622-6.86584-.48244-8.7592,2.00424-8.71584,8.73815.27,41.93235-.03,83.86856.28829,125.80022.05532,7.28217-2.24988,9.606-9.30628,9.08042a191.79229,191.79229,0,0,0-21.59885-.0643c-6.28077.24254-8.53056-2.18122-8.49861-8.61635.20913-42.19025-.05221-84.383.2178-126.57258.04109-6.41245-1.71316-8.58782-8.16216-8.38492-12.85059.40432-25.7255-.02968-38.585.19534-5.53615.09687-8.11419-1.82253-7.792-7.60292a121.82662,121.82662,0,0,0-.04938-15.42659c-.47744-6.67939,2.11822-9.03583,8.90979-8.92843,21.60488.34165,43.21863.1265,64.82888.1265Z"></path><path d="M1560.61363,1234.07244c0-14.72792-.00472-29.06189.00207-43.39583.00339-7.198-.23231-14.41051.1686-21.58693.1637-2.93112,1.23158-7.92537,2.74466-8.27518,4.73452-1.09447,10.28415-2.08648,13.66325,3.66686,5.84829,9.95729,11.83446,19.83362,17.78152,29.73264,1.29519,2.15582,2.66935,4.26424,4.669,7.44838,7.54985-12.27035,14.81971-23.56145,21.50149-35.19048,2.87651-5.00624,6.6995-6.46554,12.00391-6.41481,4.30015.04118,5.84282,1.7681,5.81889,6.04479q-.17685,31.61783.045,63.23732c.03016,4.52869-2.11313,5.61006-6.16,5.67523-4.22259.068-6.08522-1.35525-6.04224-5.74719.12581-12.85172.02978-25.70585-.0213-38.55884a14.45525,14.45525,0,0,0-1.92776-7.88492c-5.43446,9.05721-10.89183,18.10074-16.29651,27.1757-5.15523,8.65637-12.87039,8.58689-18.07725-.15273-5.36756-9.00952-10.80146-17.97954-17.75852-26.97352-.16578,2.50545-.46886,5.01061-.474,7.51638-.02413,11.82506.072,23.6504.04966,35.47548C1572.28608,1235.42255,1572.17355,1235.47514,1560.61363,1234.07244Z"></path><path d="M1206.00882,1194.44414c10.35682,6.16717,13.59145,12.83983,11.77132,22.93337-1.4424,7.99858-8.79755,15.92661-18.10939,16.685-13.28675,1.08218-26.70808.75433-40.05977.46608-1.50431-.03249-4.17084-3.68266-4.20119-5.68708-.31609-20.83136-.14108-41.66957-.254-62.505-.02582-4.74908,2.15046-6.26652,6.60724-6.18126,10.284.19683,20.57433.04138,30.85932.20352,8.19816.12926,16.42837,1.05567,20.22667,9.7398C1216.9277,1179.42388,1214.36107,1187.60477,1206.00882,1194.44414Zm-37.46684,5.745v24.8246c8.88935,0,17.10786.42989,25.25852-.13006a12.42675,12.42675,0,0,0,11.62156-12.98129c-.29262-6.42673-4.92564-11.28221-12.072-11.623C1185.17438,1199.88954,1176.96557,1200.1891,1168.542,1200.1891Zm-.447-10.36023c8.99179,0,17.17478.33188,25.31479-.11689,5.40553-.298,8.97039-4.30222,7.90016-9.35483-.73689-3.4788-4.34237-8.54967-7.2266-8.95923-8.45809-1.201-17.19645-.42765-25.98835-.42765Z"></path><path d="M1670.067,1201.79965c-.19009,15.93535,7.18711,23.74054,22.18618,23.6908a38.46157,38.46157,0,0,0,12.87792-1.82135c7.03708-2.57408,9.2862.4882,9.9967,6.59724-22.90271,16.71755-54.11064,3.98033-57.65081-23.45887-1.43222-11.10027-1.02792-22.03685,4.79823-32.14337,8.56627-14.85994,25.22817-20.18216,42.81158-13.58016,12.073,4.533,19.50344,20.56507,15.83548,35.67252-.48338,1.99127-4.65809,4.2711-7.20578,4.37392-11.80166.47623-23.63272.20578-35.453.26379C1675.51387,1201.40764,1672.76554,1201.65989,1670.067,1201.79965Zm.7122-11.33791h38.41813c.52871-14.04136-6.17465-21.70573-18.42651-21.74837C1678.78366,1168.67164,1670.41605,1177.50614,1670.77917,1190.46174Z"></path><path d="M1088.28485,1201.36064c-.15041,15.91853,6.87526,23.72649,21.05912,24.11268a37.86046,37.86046,0,0,0,13.64563-1.77444c6.70864-2.42779,9.58373-.22807,10.50383,7.1361-12.01305,7.16118-25.07154,7.39525-38.05162,3.36721-12.36269-3.8364-17.95525-13.74588-19.55485-26.17365-1.57142-12.20907-1.22654-24.047,5.61018-34.94674,8.67089-13.82385,25.81428-18.505,42.88369-11.521,11.4096,4.66827,18.734,21.54516,14.81189,35.50992-.53511,1.90528-4.31325,4.01337-6.66463,4.10488-11.03734.42956-22.10079.18717-33.15491.18509C1095.82594,1201.36007,1092.27871,1201.36064,1088.28485,1201.36064Zm.68836-11.10219H1127.947c-.9528-15.37611-7.272-21.9426-19.90388-21.48234C1096.65661,1169.191,1088.69425,1178.03981,1088.97321,1190.25845Z"></path><path d="M1244.8521,1201.3489c-1.36663,21.21309,12.84456,28.17659,41.96405,20.8054,1.09068,2.45558,2.26948,5.1096,3.77465,8.49835-13.27149,7.16442-26.84361,8.07983-40.24864,3.02541-12.73872-4.80325-17.45571-15.88868-18.24792-28.84994-.73124-11.96348-.32948-23.64738,7.21614-33.91838,9.05757-12.329,26.36607-16.02908,42.4774-8.85421,10.654,4.7445,17.67,21.33054,13.92271,34.58414-.588,2.07951-4.65545,4.39133-7.1989,4.49394-11.81372.47675-23.65713.21367-35.49.21525C1250.27271,1201.34921,1247.5239,1201.3489,1244.8521,1201.3489Zm39.17614-10.85177c.42155-13.98282-5.66471-21.28422-17.62583-21.71522-12.52064-.45122-20.22968,7.29233-21.03961,21.71522Z"></path><path d="M1420.9077,1236.40174c-22.336-.27889-34.87552-14.7929-34.5026-39.93593.34927-23.54995,14.02478-38.31129,35.2345-38.03221,22.405.29482,35.1262,15.177,34.8218,40.73733C1456.17688,1223.05279,1443.1639,1236.67964,1420.9077,1236.40174Zm23.69521-38.06211c-.93273-5.06759-1.332-9.70707-2.67794-14.05328-3.15527-10.18781-9.79728-15.22671-19.53425-15.50722-10.59412-.30521-17.14358,4.075-21.10276,14.44387a39.21643,39.21643,0,0,0,.45219,30.01743c3.78614,9.07837,9.77042,12.83822,19.83979,12.76,10.0033-.07763,16.31782-3.99221,19.62011-13.09207C1442.91943,1208.17038,1443.54314,1203.03473,1444.60291,1198.33963Z"></path><path class="cls-2" d="M348.60683,1067.63833c-.06821,15.756-10.713,26.1656-26.79606,26.20412-16.19933.03879-26.28056-10.35971-26.84491-26.14371-.633-17.705,15.03012-27.02987,26.47024-27.16642A26.54025,26.54025,0,0,1,348.60683,1067.63833Z"></path><path class="cls-2" d="M409.11126,1093.88987c-15.527.06454-27.51838-11.24573-27.54125-25.97684-.0234-15.07694,12.61828-27.74659,27.383-27.44362,14.99513.30767,27.18144,12.28591,27.29483,26.82879C436.36258,1082.00778,424.30144,1093.82672,409.11126,1093.88987Z"></path><path class="cls-2" d="M494.7502,1093.826c-15.79422-.1196-26.85322-11.0824-26.69316-26.461a27.25181,27.25181,0,0,1,27.8369-26.8906c15.03933.299,26.0947,12.04789,25.906,27.531C521.60563,1083.94567,511.125,1093.95,494.7502,1093.826Z"></path><path d="M1356.39444,1233.72282V1171.321h-26.76736c-1.20924,12.65006-1.91409,24.92782-3.68229,37.05045-1.55869,10.68527-5.70061,20.486-15.96958,25.85369-2.27608,1.18969-6.88526,1.44155-8.30061.018-2.94511-2.96205-2.66511-6.21987,1.94642-9.13553,7.92429-5.0103,10.956-13.44836,11.76829-22.39672q1.567-17.25948,2.0401-34.61194c.17152-5.938,2.44995-8.15,8.38061-8.01879,12.07346.26706,24.16049.14308,36.23734-.07453,5.32345-.09591,7.07346,1.98885,6.99674,7.33411-.27641,19.27443-.11855,38.55508-.12157,57.83339C1368.92093,1235.791,1368.29053,1236.26818,1356.39444,1233.72282Z"></path><path d="M1786.17381,1160.68494h11.82391v73.65659H1786.45v-33.78h-37.3956c0,8.49651.00227,16.65137-.00047,24.8062-.00358,10.46006-.191,10.60486-11.4718,8.4505V1160.9365h11.52458v28.21768h37.06715Z"></path><path d="M1535.992,1234.48594h-11.79855v-62.97511h-37.50812v61.76111c-11.43175,3.30837-12.68821,2.45368-12.69471-7.95622-.012-19.02744.1768-38.05683-.05589-57.08125-.0719-5.87515,1.73456-8.29424,7.922-8.16456,15.678.32855,31.36749.17861,47.0518.09393,4.003-.0216,7.14395.30019,7.12265,5.54344C1535.93942,1188.29449,1535.992,1210.88229,1535.992,1234.48594Z"></path><path d="M1833.06389,1170.74627c-7.06761,0-13.20156.33608-19.25143-.22889-1.574-.147-3.92459-3.04633-4.02524-4.79066-.10056-1.74521,2.13971-5.19118,3.40276-5.21422,18.67588-.3406,37.35988-.23486,55.85858-.23486,2.22029,10.28726,2.09033,10.463-7.29634,10.49589-4.8265.0169-9.65328.003-15.66141.003,0,7.834-.00009,14.92044.0001,22.00684.00028,12.07348-.228,24.15335.10809,36.21747.1442,5.17947-2.3674,5.95545-6.54814,5.98685-4.18979.03148-6.7322-.76049-6.67349-5.89934C1833.1947,1210.09806,1833.06389,1191.10382,1833.06389,1170.74627Z"></path></g></g></svg> 